<svg width="180" height="180" viewBox="0 0 180 180" fill="none" xmlns="http://www.w3.org/2000/svg">
<path d="M133.594 119.531L163.125 90L133.594 60.4688" stroke="black" stroke-width="11.25"/>
<path d="M46.4062 119.531L16.875 90L46.4062 60.4688" stroke="black" stroke-width="11.25"/>
<path d="M140.625 90L90 140.625L39.375 90V89.999C54.0565 99.1785 71.4087 104.484 90 104.484C108.591 104.484 125.943 99.1783 140.624 89.999L140.625 90ZM135.148 84.5234C121.877 92.4756 106.455 97.0312 90 97.0312C73.5451 97.0312 58.1223 92.4759 44.8506 84.5234L61.4531 67.9209C70.1735 72.17 79.8657 74.5312 90 74.5312C100.134 74.5312 109.826 72.1698 118.546 67.9209L135.148 84.5234ZM115.769 65.1436C107.789 68.4773 99.097 70.3125 90 70.3125C80.9025 70.3125 72.2096 68.4786 64.2295 65.1445L72.9951 56.3789C78.4046 58.1266 84.1185 59.0625 90 59.0625C95.881 59.0625 101.594 58.1254 107.003 56.3779L115.769 65.1436ZM104.011 53.3857C99.4907 54.3401 94.8042 54.8437 90 54.8438C85.1953 54.8438 80.5079 54.3412 75.9873 53.3867L80.8311 48.543C83.8229 48.9874 86.8845 49.2188 90 49.2188C93.1152 49.2188 96.1764 48.9873 99.168 48.543L104.011 53.3857ZM96.7012 46.0762C94.4968 46.2934 92.2615 46.4062 90 46.4062C87.7382 46.4062 85.5025 46.2935 83.2979 46.0762L90 39.375L96.7012 46.0762Z" fill="black"/>
</svg>
