<svg xmlns="http://www.w3.org/2000/svg" viewBox="0 11.850000381469727 212.35000610351562 37.150001525878906" data-asc="0.97" width="212.35000610351562" height="37.150001525878906"><defs/><g fill="#545454"><g transform="translate(0, 0)"><path d="M0 48.50L0 23L6.15 23L6.15 29.15L6.30 29.15L6.30 48.50L0 48.50M6.30 35.20L5.65 29.15Q6.55 25.90 8.70 24.20Q10.85 22.50 13.85 22.50Q14.90 22.50 15.35 22.70L15.35 28.65Q15.10 28.55 14.65 28.52Q14.20 28.50 13.55 28.50Q9.90 28.50 8.10 30.10Q6.30 31.70 6.30 35.20ZM19.50 48.50L19.50 23L25.80 23L25.80 48.50L19.50 48.50M19.20 18.80L19.20 11.85L26.05 11.85L26.05 18.80L19.20 18.80ZM39.60 48.50L29.40 23L36.20 23L44.35 46.45L41 46.45L49.15 23L55.75 23L45.50 48.50L39.60 48.50ZM70.75 49Q66.70 49 63.68 47.30Q60.65 45.60 58.98 42.60Q57.30 39.60 57.30 35.70Q57.30 31.80 58.98 28.82Q60.65 25.85 63.65 24.17Q66.65 22.50 70.65 22.50Q74.45 22.50 77.25 24.07Q80.05 25.65 81.60 28.50Q83.15 31.35 83.15 35.15Q83.15 35.85 83.10 36.45Q83.05 37.05 82.95 37.65L61.20 37.65L61.20 33.25L78.10 33.25L76.80 34.45Q76.80 30.85 75.15 29.05Q73.50 27.25 70.55 27.25Q67.35 27.25 65.48 29.45Q63.60 31.65 63.60 35.80Q63.60 39.90 65.48 42.08Q67.35 44.25 70.80 44.25Q72.80 44.25 74.30 43.50Q75.80 42.75 76.50 41.20L82.45 41.20Q81.20 44.80 78.23 46.90Q75.25 49 70.75 49ZM99.30 49Q94.60 49 92.38 46.77Q90.15 44.55 90.15 40.10L90.15 17.20L96.50 14.85L96.50 40.25Q96.50 42.10 97.50 43Q98.50 43.90 100.65 43.90Q101.50 43.90 102.17 43.77Q102.85 43.65 103.45 43.45L103.45 48.35Q102.85 48.65 101.75 48.83Q100.65 49 99.30 49M85.25 27.95L85.25 23L103.45 23L103.45 27.95L85.25 27.95ZM108.15 48.50L108.15 12.50L114.45 12.50L114.45 48.50L108.15 48.50M126.05 48.50L126.05 32.40Q126.05 30.05 124.85 28.85Q123.65 27.65 121.35 27.65Q119.35 27.65 117.78 28.55Q116.20 29.45 115.33 31.05Q114.45 32.65 114.45 34.75L113.80 28.65Q115.10 25.85 117.60 24.17Q120.10 22.50 123.60 22.50Q127.75 22.50 130.07 24.85Q132.40 27.20 132.40 31.10L132.40 48.50L126.05 48.50ZM150.35 49Q146.30 49 143.22 47.30Q140.15 45.60 138.45 42.58Q136.75 39.55 136.75 35.65Q136.75 31.75 138.45 28.80Q140.15 25.85 143.22 24.17Q146.30 22.50 150.35 22.50Q154.45 22.50 157.50 24.17Q160.55 25.85 162.25 28.80Q163.95 31.75 163.95 35.65Q163.95 39.55 162.23 42.58Q160.50 45.60 157.45 47.30Q154.40 49 150.35 49M150.35 43.95Q152.35 43.95 153.95 42.92Q155.55 41.90 156.45 40.02Q157.35 38.15 157.35 35.60Q157.35 31.85 155.38 29.70Q153.40 27.55 150.35 27.55Q147.30 27.55 145.30 29.70Q143.30 31.85 143.30 35.60Q143.30 38.15 144.22 40.02Q145.15 41.90 146.72 42.92Q148.30 43.95 150.35 43.95ZM168.60 48.50L168.60 23L174.75 23L174.75 29.15L174.90 29.15L174.90 48.50L168.60 48.50M174.90 35.20L174.25 29.15Q175.15 25.90 177.30 24.20Q179.45 22.50 182.45 22.50Q183.50 22.50 183.95 22.70L183.95 28.65Q183.70 28.55 183.25 28.52Q182.80 28.50 182.15 28.50Q178.50 28.50 176.70 30.10Q174.90 31.70 174.90 35.20ZM188.10 48.50L188.10 23L194.25 23L194.25 29L194.40 29L194.40 48.50L188.10 48.50M206 48.50L206 32.40Q206 30.05 204.80 28.85Q203.60 27.65 201.30 27.65Q199.30 27.65 197.72 28.55Q196.15 29.45 195.28 31.05Q194.40 32.65 194.40 34.75L193.75 28.65Q195.05 25.85 197.55 24.17Q200.05 22.50 203.55 22.50Q207.70 22.50 210.03 24.85Q212.35 27.20 212.35 31.10L212.35 48.50L206 48.50Z"/></g></g></svg>